# xmcd
#
# Track frame offsets:
#	150
#	11768
#	25216
#	36149
#	50043
#	65726
#	79554
#	90341
#	106051
#	118001
#	134354
#	147900
#	161504
#	173395
#
# Disc length: 2488 seconds
#
# Revision: 2
# Processed by: cddbd v1.5.1PL2 Copyright (c) Steve Scherf et al.
# Submitted via: EasyCDDAExtractor 8.2.4.1
#
DISCID=ae09b60e
DTITLE=Frank Sinatra and Marilyn Monroe - The Best Of Swing
DYEAR=2006
DGENRE=Swing
TTITLE0=Castle Rock
TTITLE1=I Wana Be Love (Marilyn Monroe)
TTITLE2=Get Happy
TTITLE3=Two Little Girls From Little Rock (Marilyn Monroe)
TTITLE4=The Birth Of The Blues
TTITLE5=You'd Be Surprised (Marilyn Monroe)
TTITLE6=Jeespers Creepers
TTITLE7=Bye Bye Baby (Marilyn Monroe)
TTITLE8=A Foggy Day
TTITLE9=After You Get What You Wont (Marilyn Monroe)
TTITLE10=In The Wee Small Hours Of The Morning
TTITLE11=Kiss (Marilyn Monroe)
TTITLE12=The Girl Next Door
TTITLE13=When I Fall In Love (Marilyn Monroe)
EXTD=
EXTT0=
EXTT1=
EXTT2=
EXTT3=
EXTT4=
EXTT5=
EXTT6=
EXTT7=
EXTT8=
EXTT9=
EXTT10=
EXTT11=
EXTT12=
EXTT13=
PLAYORDER=
